<?xml version="1.0" standalone="no"?>
<!DOCTYPE svg PUBLIC "-//W3C//DTD SVG 20010904//EN"
 "http://www.w3.org/TR/2001/REC-SVG-20010904/DTD/svg10.dtd">
<svg version="1.0" xmlns="http://www.w3.org/2000/svg"
 width="16.000000pt" height="16.000000pt" viewBox="0 0 16.000000 16.000000"
 preserveAspectRatio="xMidYMid meet">
<metadata>
Created by potrace 1.11, written by Peter Selinger 2001-2013
</metadata>
<g transform="translate(0.000000,16.000000) scale(0.008889,-0.008889)"
fill="#000000" stroke="none">
<path d="M160 1786 c14 -13 554 -432 971 -754 l176 -136 -26 -21 c-14 -12
-134 -104 -266 -205 -132 -101 -267 -204 -300 -230 -33 -25 -174 -133 -312
-239 -139 -106 -253 -195 -253 -197 0 -2 358 -4 795 -4 l795 0 0 900 0 900
-797 0 c-682 0 -795 -2 -783 -14z"/>
<path d="M329 1453 c-2 -45 -1 -145 2 -148 2 -1 62 -49 134 -104 72 -56 141
-111 155 -122 14 -11 71 -55 127 -97 56 -42 102 -81 103 -87 0 -5 -42 -41 -92
-80 -115 -87 -410 -315 -422 -326 -11 -10 -14 -159 -4 -165 5 -3 175 123 268
199 8 7 53 42 99 77 46 36 118 91 160 124 42 32 109 83 149 114 58 44 71 58
60 66 -35 28 -478 371 -595 463 -73 57 -135 103 -138 103 -3 0 -5 -8 -6 -17z"/>
<path d="M143 895 c0 -250 1 -455 2 -455 2 0 209 158 280 214 109 86 270 209
286 219 28 17 23 28 -24 63 -75 56 -272 207 -277 213 -3 3 -41 33 -85 66 -44
33 -82 62 -85 65 -10 11 -89 70 -93 70 -2 0 -4 -205 -4 -455z"/>
</g>
</svg>
